HIERARCHY
ROOT joint_Root
{
  OFFSET 0 0 0
  CHANNELS 6 Xposition Yposition Zposition Zrotation Xrotation Yrotation
  JOINT Hips
  {
    OFFSET 0.847027 93.984 -452.225
    CHANNELS 6 Xposition Yposition Zposition Zrotation Xrotation Yrotation
    JOINT Spine
    {
      OFFSET 15.7357 0 0
      CHANNELS 6 Xposition Yposition Zposition Zrotation Xrotation Yrotation
      JOINT Chest
      {
        OFFSET 8.98455 -0.406207 0
        CHANNELS 6 Xposition Yposition Zposition Zrotation Xrotation Yrotation
        JOINT Neck
        {
          OFFSET 16.3773 0 0
          CHANNELS 6 Xposition Yposition Zposition Zrotation Xrotation Yrotation
          JOINT Head
          {
            OFFSET 6.45672 0 0
            CHANNELS 6 Xposition Yposition Zposition Zrotation Xrotation Yrotation
            End Site
            {
              OFFSET 0 0 0
            }
          }
        }
        JOINT Shoulder_L
        {
          OFFSET 12.9942 -0.242716 4.98039
          CHANNELS 6 Xposition Yposition Zposition Zrotation Xrotation Yrotation
          JOINT UpperArm_L
          {
            OFFSET 5.34809 0 0
            CHANNELS 6 Xposition Yposition Zposition Zrotation Xrotation Yrotation
            JOINT LowerArm_L
            {
              OFFSET 24.3286 1.87007e-05 0
              CHANNELS 6 Xposition Yposition Zposition Zrotation Xrotation Yrotation
              JOINT Hand_L
              {
                OFFSET 22.2916 0 0
                CHANNELS 6 Xposition Yposition Zposition Zrotation Xrotation Yrotation
                End Site
                {
                  OFFSET 0 0 0
                }
              }
            }
          }
        }
        JOINT Shoulder_R
        {
          OFFSET 12.9945 -0.242716 -4.98039
          CHANNELS 6 Xposition Yposition Zposition Zrotation Xrotation Yrotation
          JOINT UpperArm_R
          {
            OFFSET -5.34813 0 0
            CHANNELS 6 Xposition Yposition Zposition Zrotation Xrotation Yrotation
            JOINT LowerArm_R
            {
              OFFSET -24.3289 0.000322201 0
              CHANNELS 6 Xposition Yposition Zposition Zrotation Xrotation Yrotation
              JOINT Hand_R
              {
                OFFSET -22.2915 -0.000108084 0
                CHANNELS 6 Xposition Yposition Zposition Zrotation Xrotation Yrotation
                End Site
                {
                  OFFSET 0 0 0
                }
              }
            }
          }
        }
      }
    }
    JOINT UpperLeg_L
    {
      OFFSET -2.19248 -6.46944 0
      CHANNELS 6 Xposition Yposition Zposition Zrotation Xrotation Yrotation
      JOINT LowerLeg_L
      {
        OFFSET 39.0811 0 -1.23785e-05
        CHANNELS 6 Xposition Yposition Zposition Zrotation Xrotation Yrotation
        JOINT Foot_L
        {
          OFFSET 40.9854 0 -1.26872e-05
          CHANNELS 6 Xposition Yposition Zposition Zrotation Xrotation Yrotation
          JOINT Toes_L
          {
            OFFSET 11.7543 0 0
            CHANNELS 6 Xposition Yposition Zposition Zrotation Xrotation Yrotation
            End Site
            {
              OFFSET 0 0 0
            }
          }
        }
      }
    }
    JOINT UpperLeg_R
    {
      OFFSET -2.19251 6.46944 0
      CHANNELS 6 Xposition Yposition Zposition Zrotation Xrotation Yrotation
      JOINT LowerLeg_R
      {
        OFFSET -39.0811 -0.00228153 -0.0401928
        CHANNELS 6 Xposition Yposition Zposition Zrotation Xrotation Yrotation
        JOINT Foot_R
        {
          OFFSET -40.9854 0 0
          CHANNELS 6 Xposition Yposition Zposition Zrotation Xrotation Yrotation
          JOINT Toes_R
          {
            OFFSET -11.7543 0 0
            CHANNELS 6 Xposition Yposition Zposition Zrotation Xrotation Yrotation
            End Site
            {
              OFFSET 0 0 0
            }
          }
        }
      }
    }
  }
}
MOTION
Frames:	8
Frame Time:	0.0333333
0 0 0 0 0 -0 -7.57504 83.8137 -59.2306 82.3443 -70.3489 -9.84557 15.7357 5.1072e-06 -5.51765e-07 106.101 82.6231 -109.42 8.98455 -0.406207 -4.3199e-07 6.55014 4.11424 -6.8681 16.3773 -1.3905e-06 -6.99897e-07 -0.460657 16.2474 0.650562 6.45672 -1.25837e-06 -1.02172e-07 -4.14809 24.6107 0.803877 12.9942 -0.242716 4.98039 -91.1007 3.10007 -85.4409 5.34809 -7.22636e-06 -6.2814e-07 -56.845 11.2229 -1.24896 24.3286 1.87007e-05 4.90208e-06 0.658516 0.937247 -35.1383 22.2916 -9.88446e-07 4.63217e-06 17.2741 5.61237 -12.1069 12.9945 -0.242716 -4.98039 88.4953 10.7737 -97.0006 -5.34813 -1.25947e-06 -3.79883e-06 -58.5098 13.3598 5.34032 -24.3289 0.000322201 -8.65921e-06 3.99955 4.63766 -40.8591 -22.2915 -0.000108084 -4.47941e-06 5.35551 5.57991 -10.2062 -2.19248 -6.46944 -1.22534e-07 -174.956 -10.7877 -34.5159 39.0811 -6.73843e-06 -1.23785e-05 0.0324365 -0.0139439 60.1583 40.9854 -6.48686e-06 -1.26872e-05 -2.29033 -0.162068 -76.481 11.7543 -2.30145e-07 3.05095e-06 -0.00535854 0.00824058 -16.4299 -2.19251 6.46944 -1.45247e-06 173.682 18.9742 170.429 -39.0811 -0.00228153 -0.0401928 0.75317 -0.222135 72.2686 -40.9854 7.72618e-06 5.99936e-06 -9.4561 0.109362 -54.6234 -11.7543 -5.6619e-06 -5.58687e-06 0.300757 -0.355164 -19.9964 
0 0 0 0 0 -0 -10.5778 85.5031 -58.8921 80.4107 -69.432 -11.3054 15.7357 5.1072e-06 -5.51765e-07 101.723 82.8811 -104.497 8.98455 -0.406207 -4.3199e-07 6.25805 2.92094 -5.70406 16.3773 -1.3905e-06 -6.99897e-07 -0.184267 16.2109 0.641186 6.45672 -1.25837e-06 -1.02172e-07 -3.76055 25.2324 0.744318 12.9942 -0.242716 4.98039 -90.9867 2.81681 -85.6876 5.34809 -7.22636e-06 -6.2814e-07 -55.7763 12.7337 -4.66289 24.3286 1.87007e-05 4.90208e-06 -0.191312 -0.244496 -38.051 22.2916 -9.88446e-07 4.63217e-06 18.478 5.6161 -12.361 12.9945 -0.242716 -4.98039 88.3792 10.6637 -96.3059 -5.34813 -1.25947e-06 -3.79883e-06 -59.7866 12.5469 9.0616 -24.3289 0.000322201 -8.65921e-06 3.83696 4.59565 -39.9399 -22.2915 -0.000108084 -4.47941e-06 4.93865 5.57615 -10.0076 -2.19248 -6.46944 -1.22534e-07 -173.131 -10.6718 -29.4256 39.0811 -6.73843e-06 -1.23785e-05 0.0475551 -0.0266197 55.3818 40.9854 -6.48686e-06 -1.26872e-05 -2.94515 0.835489 -76.1335 11.7543 -2.30145e-07 3.05095e-06 0.00149484 -0.00227141 -16.6177 -2.19251 6.46944 -1.45247e-06 173.898 21.7974 167.117 -39.0811 -0.00228153 -0.0401928 0.794883 -0.246144 71.7868 -40.9854 7.72618e-06 5.99936e-06 -10.0227 -0.0493461 -54.6161 -11.7543 -5.6619e-06 -5.58687e-06 0.290764 -0.342627 -19.8786 
0 0 0 0 0 -0 -13.5031 87.0971 -58.6808 79.0363 -68.3392 -12.2655 15.7357 5.1072e-06 -5.51765e-07 96.8294 83.0582 -99.0396 8.98455 -0.406207 -4.3199e-07 6.05741 1.67934 -4.50467 16.3773 -1.3905e-06 -6.99897e-07 0.21445 16.0105 0.497463 6.45672 -1.25837e-06 -1.02172e-07 -3.34702 25.7378 0.658184 12.9942 -0.242716 4.98039 -90.7269 2.11035 -85.9907 5.34809 -7.22636e-06 -6.2814e-07 -55.1151 13.1852 -7.55269 24.3286 1.87007e-05 4.90208e-06 -0.0231887 -0.0262837 -41.5875 22.2916 -9.88446e-07 4.63217e-06 19.4273 5.61459 -12.2595 12.9945 -0.242716 -4.98039 88.2801 10.1553 -95.3344 -5.34813 -1.25947e-06 -3.79883e-06 -60.8132 11.0791 12.2198 -24.3289 0.000322201 -8.65921e-06 3.91452 4.82021 -39.1652 -22.2915 -0.000108084 -4.47941e-06 4.65542 5.57681 -10.0416 -2.19248 -6.46944 -1.22534e-07 -171.379 -10.952 -24.4068 39.0811 -6.73843e-06 -1.23785e-05 0.0591126 -0.0415099 50.1086 40.9854 -6.48686e-06 -1.26872e-05 -3.37028 2.23057 -75.169 11.7543 -2.30145e-07 3.05095e-06 0.00769187 -0.0118713 -16.7893 -2.19251 6.46944 -1.45247e-06 174.41 25.4456 163.98 -39.0811 -0.00228153 -0.0401928 0.75923 -0.273614 69.2925 -40.9854 7.72618e-06 5.99936e-06 -9.27104 0.374234 -55.9623 -11.7543 -5.6619e-06 -5.58687e-06 0.281366 -0.330886 -19.768 
0 0 0 0 0 -0 -16.3037 88.4598 -58.5065 78.3477 -67.4633 -12.6011 15.7357 5.1072e-06 -5.51765e-07 92.2132 83.1284 -93.9273 8.98455 -0.406207 -4.3199e-07 5.97777 0.55614 -3.45349 16.3773 -1.3905e-06 -6.99897e-07 0.679102 15.9088 0.27794 6.45672 -1.25837e-06 -1.02172e-07 -3.02203 26.1531 0.374653 12.9942 -0.242716 4.98039 -90.4673 1.36807 -86.1397 5.34809 -7.22636e-06 -6.2814e-07 -54.0667 13.6253 -10.0407 24.3286 1.87007e-05 4.90208e-06 -0.542755 -0.531172 -45.5655 22.2916 -9.88446e-07 4.63217e-06 19.9848 5.61152 -12.0558 12.9945 -0.242716 -4.98039 88.213 9.59085 -94.3934 -5.34813 -1.25947e-06 -3.79883e-06 -61.3084 9.19518 15.1194 -24.3289 0.000322201 -8.65921e-06 3.87176 4.80041 -38.9718 -22.2915 -0.000108084 -4.47941e-06 4.21806 5.57834 -10.1229 -2.19248 -6.46944 -1.22534e-07 -169.865 -11.6585 -19.5519 39.0811 -6.73843e-06 -1.23785e-05 0.0670642 -0.0570902 44.7914 40.9854 -6.48686e-06 -1.26872e-05 -3.54909 3.8276 -73.8909 11.7543 -2.30145e-07 3.05095e-06 0.0171737 -0.0266991 -17.0546 -2.19251 6.46944 -1.45247e-06 174.952 28.9885 160.991 -39.0811 -0.00228153 -0.0401928 0.684953 -0.30887 64.927 -40.9854 7.72618e-06 5.99936e-06 -9.68122 1.50958 -56.9102 -11.7543 -5.6619e-06 -5.58687e-06 0.270442 -0.317333 -19.6404 
0 0 0 0 0 -0 -18.9931 89.4517 -58.3504 78.4323 -66.7161 -12.4459 15.7357 5.1072e-06 -5.51765e-07 88.3218 83.1305 -89.6026 8.98455 -0.406207 -4.3199e-07 5.96418 -0.380913 -2.53886 16.3773 -1.3905e-06 -6.99897e-07 1.15592 15.7987 -0.00499722 6.45672 -1.25837e-06 -1.02172e-07 -2.87616 26.5775 0.0425139 12.9942 -0.242716 4.98039 -90.2803 0.828257 -86.3007 5.34809 -7.22636e-06 -6.2814e-07 -52.6293 13.7127 -12.4817 24.3286 1.87007e-05 4.90208e-06 -1.64939 -1.41974 -49.2827 22.2916 -9.88446e-07 4.63217e-06 20.4017 5.61376 -12.2019 12.9945 -0.242716 -4.98039 88.1425 9.13159 -93.4496 -5.34813 -1.25947e-06 -3.79883e-06 -61.1554 7.62809 17.7464 -24.3289 0.000322201 -8.65921e-06 3.4347 4.19515 -39.3767 -22.2915 -0.000108084 -4.47941e-06 4.09483 5.57891 -10.1539 -2.19248 -6.46944 -1.22534e-07 -168.681 -12.4939 -15.3833 39.0811 -6.73843e-06 -1.23785e-05 0.0690899 -0.0683941 40.0365 40.9854 -6.48686e-06 -1.26872e-05 -3.69218 5.37224 -72.5191 11.7543 -2.30145e-07 3.05095e-06 0.0341563 -0.0535962 -17.5326 -2.19251 6.46944 -1.45247e-06 175.682 32.3308 157.884 -39.0811 -0.00228153 -0.0401928 0.570817 -0.331625 59.1057 -40.9854 7.72618e-06 5.99936e-06 -10.3531 2.77735 -57.6339 -11.7543 -5.6619e-06 -5.58687e-06 0.234781 -0.273492 -19.2247 
0 0 0 0 0 -0 -21.5222 90.0137 -58.2955 79.2964 -65.9932 -12.0657 15.7357 5.1072e-06 -5.51765e-07 84.964 83.1373 -85.8806 8.98455 -0.406207 -4.3199e-07 5.89854 -1.18677 -1.76999 16.3773 -1.3905e-06 -6.99897e-07 1.40317 15.6304 -0.31629 6.45672 -1.25837e-06 -1.02172e-07 -2.80059 26.9989 -0.250354 12.9942 -0.242716 4.98039 -90.0832 0.247685 -86.4372 5.34809 -7.22636e-06 -6.2814e-07 -51.3254 13.0081 -14.7171 24.3286 1.87007e-05 4.90208e-06 -1.88167 -1.41935 -52.9901 22.2916 -9.88446e-07 4.63217e-06 20.8523 5.61006 -11.9652 12.9945 -0.242716 -4.98039 88.0967 8.57556 -92.4363 -5.34813 -1.25947e-06 -3.79883e-06 -60.7368 6.51572 19.752 -24.3289 0.000322201 -8.65921e-06 3.17508 3.78401 -40.0601 -22.2915 -0.000108084 -4.47941e-06 4.03513 5.5799 -10.2061 -2.19248 -6.46944 -1.22534e-07 -167.825 -13.4776 -12.4861 39.0811 -6.73843e-06 -1.23785e-05 0.0684018 -0.0752323 36.4189 40.9854 -6.48686e-06 -1.26872e-05 -4.0182 7.10874 -71.403 11.7543 -2.30145e-07 3.05095e-06 0.0466852 -0.0737347 -17.8884 -2.19251 6.46944 -1.45247e-06 177.003 34.8597 154.253 -39.0811 -0.00228153 -0.0401928 0.423457 -0.320226 52.1555 -40.9854 7.72618e-06 5.99936e-06 -10.1338 3.21302 -58.6509 -11.7543 -5.6619e-06 -5.58687e-06 0.227361 -0.264458 -19.1386 
0 0 0 0 0 -0 -24.0593 90.1061 -58.3612 80.8501 -65.0783 -11.1402 15.7357 5.1072e-06 -5.51765e-07 81.3408 83.0793 -81.9651 8.98455 -0.406207 -4.3199e-07 5.90967 -2.06845 -1.14054 16.3773 -1.3905e-06 -6.99897e-07 1.59964 15.4677 -0.499342 6.45672 -1.25837e-06 -1.02172e-07 -2.69829 27.4046 -0.642909 12.9942 -0.242716 4.98039 -89.9101 -0.269802 -86.5689 5.34809 -7.22636e-06 -6.2814e-07 -50.0688 11.699 -16.3934 24.3286 1.87007e-05 4.90208e-06 -1.76477 -1.16482 -56.5793 22.2916 -9.88446e-07 4.63217e-06 21.3357 5.60501 -11.6469 12.9945 -0.242716 -4.98039 88.0594 8.10651 -91.489 -5.34813 -1.25947e-06 -3.79883e-06 -60.1537 5.89146 21.3349 -24.3289 0.000322201 -8.65921e-06 3.27782 3.78639 -40.9441 -22.2915 -0.000108084 -4.47941e-06 4.18242 5.58248 -10.3464 -2.19248 -6.46944 -1.22534e-07 -167.12 -14.1277 -10.5317 39.0811 -6.73843e-06 -1.23785e-05 0.0661067 -0.075363 34.2572 40.9854 -6.48686e-06 -1.26872e-05 -4.46082 8.84961 -70.8005 11.7543 -2.30145e-07 3.05095e-06 0.0649228 -0.103613 -18.4146 -2.19251 6.46944 -1.45247e-06 178.243 36.3986 151.122 -39.0811 -0.00228153 -0.0401928 0.273886 -0.275734 43.9512 -40.9854 7.72618e-06 5.99936e-06 -9.92568 2.99843 -59.5224 -11.7543 -5.6619e-06 -5.58687e-06 0.227182 -0.264209 -19.136 
0 0 0 0 0 -0 -26.6424 89.7592 -58.5563 83.1797 -63.9496 -9.5442 15.7357 5.1072e-06 -5.51765e-07 77.7483 82.9623 -78.1915 8.98455 -0.406207 -4.3199e-07 5.98365 -2.97194 -0.730247 16.3773 -1.3905e-06 -6.99897e-07 1.79864 15.2957 -0.600536 6.45672 -1.25837e-06 -1.02172e-07 -2.57319 27.631 -0.907334 12.9942 -0.242716 4.98039 -89.8283 -0.517033 -86.6266 5.34809 -7.22636e-06 -6.2814e-07 -48.6645 10.1709 -17.7813 24.3286 1.87007e-05 4.90208e-06 -2.36116 -1.3848 -59.6214 22.2916 -9.88446e-07 4.63217e-06 21.8616 5.60093 -11.399 12.9945 -0.242716 -4.98039 88.0011 7.92868 -90.801 -5.34813 -1.25947e-06 -3.79883e-06 -59.4116 5.32174 22.8021 -24.3289 0.000322201 -8.65921e-06 3.11645 3.4796 -41.9069 -22.2915 -0.000108084 -4.47941e-06 4.20587 5.58428 -10.445 -2.19248 -6.46944 -1.22534e-07 -166.672 -14.0072 -9.33577 39.0811 -6.73843e-06 -1.23785e-05 0.0607585 -0.0658911 33.3913 40.9854 -6.48686e-06 -1.26872e-05 -5.00711 10.1996 -70.8843 11.7543 -2.30145e-07 3.05095e-06 0.0845377 -0.136453 -18.9897 -2.19251 6.46944 -1.45247e-06 178.772 36.8647 148.74 -39.0811 -0.00228153 -0.0401928 0.159436 -0.220496 34.8994 -40.9854 7.72618e-06 5.99936e-06 -10.3214 1.50309 -58.6536 -11.7543 -5.6619e-06 -5.58687e-06 0.207409 -0.240254 -18.9077 
